<mxfile host="app.diagrams.net" modified="2021-12-08T10:46:57.130Z" agent="5.0 (Windows NT 10.0; Win64; x64) AppleWebKit/537.36 (KHTML, like Gecko) Chrome/96.0.4664.45 Safari/537.36" etag="l1WIedaTroLQRcTB-XfV" version="15.3.4" type="github">
  <diagram id="aaFForTixTUAq58KOcFa" name="Page-1">
    <mxGraphModel dx="1422" dy="762" grid="1" gridSize="10" guides="1" tooltips="1" connect="1" arrows="1" fold="1" page="1" pageScale="1" pageWidth="827" pageHeight="1169" math="0" shadow="0">
      <root>
        <mxCell id="0" />
        <mxCell id="1" parent="0" />
        <mxCell id="A4tAShDIULg5Lop70ura-5" value="" style="edgeStyle=none;curved=1;rounded=0;orthogonalLoop=1;jettySize=auto;html=1;endArrow=open;startSize=14;endSize=14;sourcePerimeterSpacing=8;targetPerimeterSpacing=8;exitX=1;exitY=0.5;exitDx=0;exitDy=0;" edge="1" parent="1" source="A4tAShDIULg5Lop70ura-1" target="A4tAShDIULg5Lop70ura-4">
          <mxGeometry relative="1" as="geometry">
            <Array as="points">
              <mxPoint x="261" y="130" />
            </Array>
          </mxGeometry>
        </mxCell>
        <mxCell id="A4tAShDIULg5Lop70ura-1" value="&lt;font style=&quot;font-size: 14px&quot;&gt;wax_bid_req&lt;/font&gt;" style="rounded=1;whiteSpace=wrap;html=1;hachureGap=4;pointerEvents=0;" vertex="1" parent="1">
          <mxGeometry x="59" y="60" width="120" height="60" as="geometry" />
        </mxCell>
        <mxCell id="A4tAShDIULg5Lop70ura-8" style="edgeStyle=none;curved=1;rounded=0;orthogonalLoop=1;jettySize=auto;html=1;exitX=1;exitY=0.5;exitDx=0;exitDy=0;endArrow=open;startSize=14;endSize=14;sourcePerimeterSpacing=8;targetPerimeterSpacing=8;" edge="1" parent="1" source="A4tAShDIULg5Lop70ura-2">
          <mxGeometry relative="1" as="geometry">
            <mxPoint x="259" y="140" as="targetPoint" />
          </mxGeometry>
        </mxCell>
        <mxCell id="A4tAShDIULg5Lop70ura-2" value="&lt;font style=&quot;font-size: 14px&quot;&gt;wax_exposure_req&lt;/font&gt;" style="rounded=1;whiteSpace=wrap;html=1;hachureGap=4;pointerEvents=0;" vertex="1" parent="1">
          <mxGeometry x="49" y="150" width="130" height="60" as="geometry" />
        </mxCell>
        <mxCell id="A4tAShDIULg5Lop70ura-10" value="" style="edgeStyle=none;curved=1;rounded=0;orthogonalLoop=1;jettySize=auto;html=1;endArrow=open;startSize=14;endSize=14;sourcePerimeterSpacing=8;targetPerimeterSpacing=8;" edge="1" parent="1" source="A4tAShDIULg5Lop70ura-4" target="A4tAShDIULg5Lop70ura-9">
          <mxGeometry relative="1" as="geometry" />
        </mxCell>
        <mxCell id="A4tAShDIULg5Lop70ura-20" value="" style="edgeStyle=none;curved=1;rounded=0;orthogonalLoop=1;jettySize=auto;html=1;endArrow=open;startSize=14;endSize=14;sourcePerimeterSpacing=8;targetPerimeterSpacing=8;" edge="1" parent="1" source="A4tAShDIULg5Lop70ura-4" target="A4tAShDIULg5Lop70ura-19">
          <mxGeometry relative="1" as="geometry" />
        </mxCell>
        <mxCell id="A4tAShDIULg5Lop70ura-4" value="&lt;span style=&quot;color: rgb(0 , 0 , 0) ; font-family: &amp;#34;helvetica&amp;#34; ; font-style: normal ; font-weight: 400 ; letter-spacing: normal ; text-align: center ; text-indent: 0px ; text-transform: none ; word-spacing: 0px ; background-color: rgb(248 , 249 , 250) ; display: inline ; float: none&quot;&gt;&lt;font style=&quot;font-size: 14px&quot;&gt;wax_req_user_flag_info&lt;/font&gt;&lt;br&gt;&lt;/span&gt;" style="whiteSpace=wrap;html=1;rounded=1;hachureGap=4;shadow=0;strokeColor=#000000;" vertex="1" parent="1">
          <mxGeometry x="269" y="100" width="200" height="60" as="geometry" />
        </mxCell>
        <mxCell id="A4tAShDIULg5Lop70ura-12" value="" style="edgeStyle=none;curved=1;rounded=0;orthogonalLoop=1;jettySize=auto;html=1;endArrow=open;startSize=14;endSize=14;sourcePerimeterSpacing=8;targetPerimeterSpacing=8;" edge="1" parent="1" source="A4tAShDIULg5Lop70ura-9" target="A4tAShDIULg5Lop70ura-11">
          <mxGeometry relative="1" as="geometry" />
        </mxCell>
        <mxCell id="A4tAShDIULg5Lop70ura-16" value="" style="edgeStyle=none;curved=1;rounded=0;orthogonalLoop=1;jettySize=auto;html=1;endArrow=open;startSize=14;endSize=14;sourcePerimeterSpacing=8;targetPerimeterSpacing=8;" edge="1" parent="1" source="A4tAShDIULg5Lop70ura-9" target="A4tAShDIULg5Lop70ura-15">
          <mxGeometry relative="1" as="geometry" />
        </mxCell>
        <mxCell id="A4tAShDIULg5Lop70ura-9" value="&lt;font style=&quot;font-size: 14px&quot;&gt;adbright_user_info_dict&lt;/font&gt;" style="whiteSpace=wrap;html=1;rounded=1;shadow=0;hachureGap=4;" vertex="1" parent="1">
          <mxGeometry x="289" y="240" width="170" height="60" as="geometry" />
        </mxCell>
        <mxCell id="A4tAShDIULg5Lop70ura-11" value="&lt;font style=&quot;font-size: 14px&quot;&gt;adbright_user_flag_info_dict&lt;/font&gt;" style="whiteSpace=wrap;html=1;rounded=1;shadow=0;hachureGap=4;" vertex="1" parent="1">
          <mxGeometry x="399" y="370" width="200" height="50" as="geometry" />
        </mxCell>
        <mxCell id="A4tAShDIULg5Lop70ura-18" value="" style="edgeStyle=none;curved=1;rounded=0;orthogonalLoop=1;jettySize=auto;html=1;endArrow=open;startSize=14;endSize=14;sourcePerimeterSpacing=8;targetPerimeterSpacing=8;" edge="1" parent="1" source="A4tAShDIULg5Lop70ura-15" target="A4tAShDIULg5Lop70ura-17">
          <mxGeometry relative="1" as="geometry" />
        </mxCell>
        <mxCell id="A4tAShDIULg5Lop70ura-15" value="&lt;font style=&quot;font-size: 14px&quot;&gt;adbright_user_flag_info_new&lt;/font&gt;" style="whiteSpace=wrap;html=1;rounded=1;shadow=0;hachureGap=4;" vertex="1" parent="1">
          <mxGeometry x="139" y="370" width="210" height="60" as="geometry" />
        </mxCell>
        <mxCell id="A4tAShDIULg5Lop70ura-17" value="&lt;font style=&quot;font-size: 14px&quot;&gt;adbright_user_flag_info_dmp&lt;/font&gt;" style="whiteSpace=wrap;html=1;rounded=1;shadow=0;hachureGap=4;" vertex="1" parent="1">
          <mxGeometry x="139" y="510" width="220" height="60" as="geometry" />
        </mxCell>
        <mxCell id="A4tAShDIULg5Lop70ura-19" value="&lt;font style=&quot;font-size: 14px&quot;&gt;wax_req_user_flag_info_self&lt;/font&gt;" style="whiteSpace=wrap;html=1;rounded=1;shadow=0;hachureGap=4;" vertex="1" parent="1">
          <mxGeometry x="589" y="100" width="190" height="60" as="geometry" />
        </mxCell>
      </root>
    </mxGraphModel>
  </diagram>
</mxfile>
